<svg width="20" height="20" xmlns="http://www.w3.org/2000/svg" viewBox="0 0 511.999 511.999" xml:space="preserve"><path style="fill:none;stroke:#90bc42;stroke-width:15;stroke-linecap:round;stroke-linejoin:round;stroke-miterlimit:10" d="M50.746 451.598v-2.505a93.55 93.55 0 0 1 27.399-66.149h0"/><path style="fill:none;stroke:#90bc42;stroke-width:15;stroke-linecap:round;stroke-linejoin:round;stroke-miterlimit:10" d="M23.347 349.942a93.55 93.55 0 0 1 27.399 66.149v35.507s-6.624-40.599-42.493-50.501m453 50.501v-2.505a93.55 93.55 0 0 0-27.399-66.149h0"/><path style="fill:none;stroke:#90bc42;stroke-width:15;stroke-linecap:round;stroke-linejoin:round;stroke-miterlimit:10" d="M488.652 349.942a93.55 93.55 0 0 0-27.399 66.149v35.507s6.624-40.599 42.493-50.501"/><path style="fill:#b27214" d="M503.692 477.602H8.304a455.3 455.3 0 0 1 94.426-46.449c47.923-17.03 99.509-26.305 153.274-26.305s105.351 9.274 153.263 26.305a456 456 0 0 1 94.425 46.449"/><path style="fill:#ccc" d="M409.266 187.678v243.475c-47.912-17.03-99.498-26.305-153.263-26.305s-105.351 9.274-153.274 26.305V187.678c0-84.646 68.617-153.274 153.263-153.274 84.657 0 153.274 68.628 153.274 153.274"/><path style="fill:#b3b3b3" d="M130.234 187.678c0-69.349 56.415-125.77 125.759-125.77 69.349 0 125.769 56.42 125.769 125.77v206.135c-40.827-10.939-82.977-16.468-125.759-16.468s-84.933 5.529-125.77 16.469V187.678z"/><path style="fill:#333" d="M163.353 264.456a8.25 8.25 0 0 0 8.251-8.251v-35.753h18.151c10.008 0 18.151 8.142 18.151 18.151v17.601a8.25 8.25 0 1 0 16.502 0v-17.601c0-10.568-4.761-20.042-12.245-26.403 7.483-6.361 12.245-15.833 12.245-26.403 0-19.109-15.545-34.654-34.654-34.654h-26.403a8.25 8.25 0 0 0-8.251 8.251v96.808a8.255 8.255 0 0 0 8.253 8.254m8.251-96.808h18.151c10.008 0 18.151 8.142 18.151 18.151 0 10.008-8.142 18.151-18.151 18.151h-18.151zm135.239 96.808a8.25 8.25 0 0 0 8.251-8.251v-35.753h18.151c19.107 0 34.654-15.545 34.654-34.654s-15.546-34.654-34.654-34.654h-26.403a8.25 8.25 0 0 0-8.251 8.251v96.808a8.25 8.25 0 0 0 8.252 8.253m8.251-96.808h18.151c10.009 0 18.151 8.142 18.151 18.151 0 10.008-8.142 18.151-18.151 18.151h-18.151zm-54.68 96.808a8.25 8.25 0 0 0 8.251-8.251v-96.808a8.25 8.25 0 1 0-16.502 0v96.808a8.25 8.25 0 0 0 8.251 8.251m106.146 28.281a8.25 8.25 0 0 0-8.251-8.251H153.69a8.25 8.25 0 1 0 0 16.502h204.619a8.25 8.25 0 0 0 8.251-8.251m-23.249 34.654a8.25 8.25 0 0 0-8.251-8.251H176.94a8.25 8.25 0 1 0 0 16.502h158.121a8.25 8.25 0 0 0 8.25-8.251"/><path style="fill:#333" d="M508.168 470.663a465 465 0 0 0-37.809-21.915c2.612-9.663 11.315-32.998 35.583-39.698a8.25 8.25 0 0 0 5.757-10.15 8.246 8.246 0 0 0-10.15-5.757c-14.496 4.002-24.782 12.219-32.029 21.205.44-22.133 9.267-42.874 24.965-58.572a8.25 8.25 0 0 0 .001-11.668c-3.223-3.222-8.448-3.222-11.668 0-14.52 14.518-24.103 32.653-27.932 52.371a102.5 102.5 0 0 0-15.201-19.367 8.251 8.251 0 0 0-11.667 11.669c13.94 13.94 22.449 31.858 24.491 51.192a463 463 0 0 0-34.988-14.583V187.673c0-89.065-72.46-161.525-161.525-161.525-89.059 0-161.514 72.46-161.514 161.525v237.716a463 463 0 0 0-34.992 14.584c2.043-19.335 10.55-37.253 24.491-51.192a8.25 8.25 0 0 0-11.668-11.668 102.5 102.5 0 0 0-15.2 19.366c-3.829-19.717-13.412-37.851-27.931-52.37a8.25 8.25 0 0 0-11.668 11.668c15.699 15.7 24.525 36.441 24.966 58.573-7.247-8.988-17.532-17.204-32.03-21.207a8.252 8.252 0 0 0-4.393 15.907c24.279 6.703 32.979 30.053 35.586 39.697a465 465 0 0 0-37.811 21.916 8.25 8.25 0 0 0 4.471 15.187h495.395a8.251 8.251 0 0 0 4.47-15.187m-397.184-282.99c0-79.966 65.052-145.022 145.011-145.022 79.966 0 145.022 65.057 145.022 145.022v231.979c-46.48-15.2-95.348-23.048-145.019-23.048-49.67 0-98.536 7.849-145.015 23.047zM38.125 469.347c66.437-36.875 141.169-56.242 217.874-56.242s151.436 19.367 217.874 56.242z"/></svg>