<?xml version="1.0" standalone="no"?>
<!DOCTYPE svg PUBLIC "-//W3C//DTD SVG 20010904//EN"
 "http://www.w3.org/TR/2001/REC-SVG-20010904/DTD/svg10.dtd">
<svg version="1.0" xmlns="http://www.w3.org/2000/svg"
 width="260.000000pt" height="260.000000pt" viewBox="0 0 260.000000 260.000000"
 preserveAspectRatio="xMidYMid meet">
<metadata>
Created by potrace 1.14, written by Peter Selinger 2001-2017
</metadata>
<g transform="translate(0.000000,260.000000) scale(0.100000,-0.100000)"
fill="#000000" stroke="none">
<path d="M1158 2594 c-6 -5 -159 -29 -170 -26 -5 1 -8 -2 -8 -6 0 -4 -8 -9
-17 -10 -27 -3 -45 -8 -76 -20 -16 -7 -32 -12 -37 -12 -33 0 -214 -100 -345
-190 -26 -18 -118 -103 -154 -144 -14 -15 -36 -39 -48 -52 -12 -13 -37 -45
-54 -71 -18 -27 -35 -50 -39 -53 -3 -3 -19 -31 -35 -62 -17 -32 -33 -58 -37
-58 -5 0 -8 -6 -8 -13 0 -7 -8 -31 -19 -53 -23 -49 -62 -163 -64 -186 -1 -10
-5 -18 -9 -18 -4 0 -7 -3 -6 -7 1 -5 -2 -33 -7 -63 -4 -30 -9 -62 -10 -70 0
-9 -3 -20 -6 -25 -6 -11 -3 -296 4 -330 2 -11 7 -45 11 -75 5 -30 13 -63 18
-73 5 -10 10 -28 12 -40 3 -24 12 -53 27 -79 5 -10 9 -23 9 -29 0 -18 72 -161
115 -229 68 -106 177 -230 258 -293 15 -12 38 -30 50 -41 37 -31 105 -76 115
-76 6 0 12 -3 14 -8 4 -10 162 -86 218 -105 168 -57 253 -71 440 -70 147 0
201 6 300 29 36 9 70 17 75 18 6 1 15 4 20 7 6 4 28 12 50 19 59 19 181 78
244 118 158 101 273 213 398 388 30 41 100 181 125 249 49 133 86 294 73 315
-3 6 -2 10 3 10 9 0 9 277 -1 315 -7 30 -21 129 -19 138 1 4 -2 7 -8 7 -6 0
-9 3 -8 8 4 13 -24 112 -33 118 -5 3 -9 13 -9 22 0 9 -16 47 -35 85 -18 37
-32 67 -30 67 6 0 -102 158 -140 205 -66 82 -174 181 -259 237 -22 15 -46 32
-53 37 -21 18 -157 87 -213 108 -169 65 -278 85 -472 88 -81 1 -149 1 -150 -1z"/>
</g>
</svg>
